REM GENRE Electronica
REM DATE 1998
PERFORMER "Faithless"
CATALOG 1112223334445
CDTEXTFILE blah-blah.txt
TITLE "Fake sample Cuesheet"
FILE "$PATH/MP3/01 - Title Screen.mp3" MP3
  TRACK 01 AUDIO
	REM comment11
	REM comment12
    TITLE "Reverence"
    PERFORMER "Faithless1"
    PREGAP 00:01:00
    INDEX 01 00:00:00
  TRACK 02 AUDIO
    TITLE "She's My Baby"
    INDEX 01 06:42:00
	POSTGAP 00:01:01
	REM comment21
	REM comment22
  TRACK 03 AUDIO
    TITLE "Take the Long Way Home"
    PERFORMER "Faithless"
    INDEX 01 10:54:00
    POSTGAP 00:01:01
  TRACK 04 AUDIO
    TITLE "Insomnia"
    PERFORMER "Faithless"
    INDEX 01 17:04:00
    INDEX 02 17:04:05
  TRACK 05 AUDIO
    FLAGS PRE
    TITLE "Bring the Family Back"
    PERFORMER "Faithless"
    INDEX 01 25:44:00
  TRACK 06 AUDIO
    TITLE "Salva Mea"
    PERFORMER "Faithless"
    INDEX 01 30:50:00
  TRACK 07 AUDIO
    TITLE "Dirty Old Man"
    PERFORMER "Faithless"
    INDEX 01 38:24:00
  TRACK 08 AUDIO
    TITLE "God Is a DJ"
    PERFORMER "Faithless"
    INDEX 01 42:35:00